<svg id="Layer_1" data-name="Layer 1" xmlns="http://www.w3.org/2000/svg" viewBox="0 0 138.9 140.26"><defs><style>.cls-1{fill:#61c123;}</style></defs><circle class="cls-1" cx="69.35" cy="70.13" r="27.77"/><rect class="cls-1" x="31.63" y="19.27" width="8.82" height="34.77" rx="1.45" transform="translate(-20.91 31.35) rotate(-45)"/><rect class="cls-1" x="108.22" y="95.86" width="8.82" height="34.77" rx="1.45" transform="translate(-52.64 107.94) rotate(-45)"/><rect class="cls-1" x="64.94" width="8.82" height="34.77" rx="1.45"/><rect class="cls-1" x="64.94" y="105.49" width="8.82" height="34.77" rx="1.45"/><rect class="cls-1" x="18.52" y="57.61" width="8.82" height="34.77" rx="1.45" transform="translate(-57.61 93.07) rotate(-90)"/><rect class="cls-1" x="122.65" y="57.61" width="8.82" height="34.77" rx="1.45" transform="translate(46.52 197.2) rotate(-90)"/><rect class="cls-1" x="108.22" y="20.17" width="8.82" height="34.77" rx="1.45" transform="translate(160.16 138.89) rotate(-135)"/><rect class="cls-1" x="33.09" y="95.3" width="8.82" height="34.77" rx="1.45" transform="translate(-21.21 214.02) rotate(-135)"/></svg>